%TF.GenerationSoftware,KiCad,Pcbnew,8.0.7*%
%TF.CreationDate,2024-12-13T10:46:06-05:00*%
%TF.ProjectId,SwerveHubWago,53776572-7665-4487-9562-5761676f2e6b,rev?*%
%TF.SameCoordinates,Original*%
%TF.FileFunction,Legend,Top*%
%TF.FilePolarity,Positive*%
%FSLAX46Y46*%
G04 Gerber Fmt 4.6, Leading zero omitted, Abs format (unit mm)*
G04 Created by KiCad (PCBNEW 8.0.7) date 2024-12-13 10:46:06*
%MOMM*%
%LPD*%
G01*
G04 APERTURE LIST*
%ADD10C,0.300000*%
%ADD11C,0.100000*%
%ADD12C,0.150000*%
%ADD13C,0.254000*%
%ADD14C,0.200000*%
%ADD15C,0.120000*%
%ADD16R,1.337000X1.337000*%
%ADD17C,1.337000*%
%ADD18C,2.190000*%
%ADD19R,1.650000X1.650000*%
%ADD20C,1.650000*%
%ADD21R,1.800000X1.800000*%
%ADD22C,1.800000*%
%ADD23R,1.725000X1.725000*%
%ADD24C,1.725000*%
G04 APERTURE END LIST*
D10*
X158800828Y-54659774D02*
X158800828Y-53802632D01*
X160300828Y-54231203D02*
X158800828Y-54231203D01*
X159515114Y-53302632D02*
X159515114Y-52802632D01*
X160300828Y-52588346D02*
X160300828Y-53302632D01*
X160300828Y-53302632D02*
X158800828Y-53302632D01*
X158800828Y-53302632D02*
X158800828Y-52588346D01*
X160300828Y-51088346D02*
X159586542Y-51588346D01*
X160300828Y-51945489D02*
X158800828Y-51945489D01*
X158800828Y-51945489D02*
X158800828Y-51374060D01*
X158800828Y-51374060D02*
X158872257Y-51231203D01*
X158872257Y-51231203D02*
X158943685Y-51159774D01*
X158943685Y-51159774D02*
X159086542Y-51088346D01*
X159086542Y-51088346D02*
X159300828Y-51088346D01*
X159300828Y-51088346D02*
X159443685Y-51159774D01*
X159443685Y-51159774D02*
X159515114Y-51231203D01*
X159515114Y-51231203D02*
X159586542Y-51374060D01*
X159586542Y-51374060D02*
X159586542Y-51945489D01*
X160300828Y-50445489D02*
X158800828Y-50445489D01*
X158800828Y-50445489D02*
X159872257Y-49945489D01*
X159872257Y-49945489D02*
X158800828Y-49445489D01*
X158800828Y-49445489D02*
X160300828Y-49445489D01*
D11*
X136994360Y-49896228D02*
X136994360Y-50372419D01*
X136661027Y-49372419D02*
X136994360Y-49896228D01*
X136994360Y-49896228D02*
X137327693Y-49372419D01*
X129994360Y-49896228D02*
X129994360Y-50372419D01*
X129661027Y-49372419D02*
X129994360Y-49896228D01*
X129994360Y-49896228D02*
X130327693Y-49372419D01*
X143994360Y-49896228D02*
X143994360Y-50372419D01*
X143661027Y-49372419D02*
X143994360Y-49896228D01*
X143994360Y-49896228D02*
X144327693Y-49372419D01*
X133827693Y-49420038D02*
X133732455Y-49372419D01*
X133732455Y-49372419D02*
X133589598Y-49372419D01*
X133589598Y-49372419D02*
X133446741Y-49420038D01*
X133446741Y-49420038D02*
X133351503Y-49515276D01*
X133351503Y-49515276D02*
X133303884Y-49610514D01*
X133303884Y-49610514D02*
X133256265Y-49800990D01*
X133256265Y-49800990D02*
X133256265Y-49943847D01*
X133256265Y-49943847D02*
X133303884Y-50134323D01*
X133303884Y-50134323D02*
X133351503Y-50229561D01*
X133351503Y-50229561D02*
X133446741Y-50324800D01*
X133446741Y-50324800D02*
X133589598Y-50372419D01*
X133589598Y-50372419D02*
X133684836Y-50372419D01*
X133684836Y-50372419D02*
X133827693Y-50324800D01*
X133827693Y-50324800D02*
X133875312Y-50277180D01*
X133875312Y-50277180D02*
X133875312Y-49943847D01*
X133875312Y-49943847D02*
X133684836Y-49943847D01*
X140827693Y-49420038D02*
X140732455Y-49372419D01*
X140732455Y-49372419D02*
X140589598Y-49372419D01*
X140589598Y-49372419D02*
X140446741Y-49420038D01*
X140446741Y-49420038D02*
X140351503Y-49515276D01*
X140351503Y-49515276D02*
X140303884Y-49610514D01*
X140303884Y-49610514D02*
X140256265Y-49800990D01*
X140256265Y-49800990D02*
X140256265Y-49943847D01*
X140256265Y-49943847D02*
X140303884Y-50134323D01*
X140303884Y-50134323D02*
X140351503Y-50229561D01*
X140351503Y-50229561D02*
X140446741Y-50324800D01*
X140446741Y-50324800D02*
X140589598Y-50372419D01*
X140589598Y-50372419D02*
X140684836Y-50372419D01*
X140684836Y-50372419D02*
X140827693Y-50324800D01*
X140827693Y-50324800D02*
X140875312Y-50277180D01*
X140875312Y-50277180D02*
X140875312Y-49943847D01*
X140875312Y-49943847D02*
X140684836Y-49943847D01*
X147827693Y-49420038D02*
X147732455Y-49372419D01*
X147732455Y-49372419D02*
X147589598Y-49372419D01*
X147589598Y-49372419D02*
X147446741Y-49420038D01*
X147446741Y-49420038D02*
X147351503Y-49515276D01*
X147351503Y-49515276D02*
X147303884Y-49610514D01*
X147303884Y-49610514D02*
X147256265Y-49800990D01*
X147256265Y-49800990D02*
X147256265Y-49943847D01*
X147256265Y-49943847D02*
X147303884Y-50134323D01*
X147303884Y-50134323D02*
X147351503Y-50229561D01*
X147351503Y-50229561D02*
X147446741Y-50324800D01*
X147446741Y-50324800D02*
X147589598Y-50372419D01*
X147589598Y-50372419D02*
X147684836Y-50372419D01*
X147684836Y-50372419D02*
X147827693Y-50324800D01*
X147827693Y-50324800D02*
X147875312Y-50277180D01*
X147875312Y-50277180D02*
X147875312Y-49943847D01*
X147875312Y-49943847D02*
X147684836Y-49943847D01*
X131994360Y-47896228D02*
X131994360Y-48372419D01*
X131661027Y-47372419D02*
X131994360Y-47896228D01*
X131994360Y-47896228D02*
X132327693Y-47372419D01*
X133303884Y-48372419D02*
X133303884Y-47372419D01*
X133780074Y-48372419D02*
X133780074Y-47372419D01*
X133780074Y-47372419D02*
X134351502Y-48372419D01*
X134351502Y-48372419D02*
X134351502Y-47372419D01*
X146827693Y-47420038D02*
X146732455Y-47372419D01*
X146732455Y-47372419D02*
X146589598Y-47372419D01*
X146589598Y-47372419D02*
X146446741Y-47420038D01*
X146446741Y-47420038D02*
X146351503Y-47515276D01*
X146351503Y-47515276D02*
X146303884Y-47610514D01*
X146303884Y-47610514D02*
X146256265Y-47800990D01*
X146256265Y-47800990D02*
X146256265Y-47943847D01*
X146256265Y-47943847D02*
X146303884Y-48134323D01*
X146303884Y-48134323D02*
X146351503Y-48229561D01*
X146351503Y-48229561D02*
X146446741Y-48324800D01*
X146446741Y-48324800D02*
X146589598Y-48372419D01*
X146589598Y-48372419D02*
X146684836Y-48372419D01*
X146684836Y-48372419D02*
X146827693Y-48324800D01*
X146827693Y-48324800D02*
X146875312Y-48277180D01*
X146875312Y-48277180D02*
X146875312Y-47943847D01*
X146875312Y-47943847D02*
X146684836Y-47943847D01*
X144994360Y-47896228D02*
X144994360Y-48372419D01*
X144661027Y-47372419D02*
X144994360Y-47896228D01*
X144994360Y-47896228D02*
X145327693Y-47372419D01*
X147494360Y-47372419D02*
X147684836Y-47372419D01*
X147684836Y-47372419D02*
X147780074Y-47420038D01*
X147780074Y-47420038D02*
X147875312Y-47515276D01*
X147875312Y-47515276D02*
X147922931Y-47705752D01*
X147922931Y-47705752D02*
X147922931Y-48039085D01*
X147922931Y-48039085D02*
X147875312Y-48229561D01*
X147875312Y-48229561D02*
X147780074Y-48324800D01*
X147780074Y-48324800D02*
X147684836Y-48372419D01*
X147684836Y-48372419D02*
X147494360Y-48372419D01*
X147494360Y-48372419D02*
X147399122Y-48324800D01*
X147399122Y-48324800D02*
X147303884Y-48229561D01*
X147303884Y-48229561D02*
X147256265Y-48039085D01*
X147256265Y-48039085D02*
X147256265Y-47705752D01*
X147256265Y-47705752D02*
X147303884Y-47515276D01*
X147303884Y-47515276D02*
X147399122Y-47420038D01*
X147399122Y-47420038D02*
X147494360Y-47372419D01*
X148351503Y-47372419D02*
X148351503Y-48181942D01*
X148351503Y-48181942D02*
X148399122Y-48277180D01*
X148399122Y-48277180D02*
X148446741Y-48324800D01*
X148446741Y-48324800D02*
X148541979Y-48372419D01*
X148541979Y-48372419D02*
X148732455Y-48372419D01*
X148732455Y-48372419D02*
X148827693Y-48324800D01*
X148827693Y-48324800D02*
X148875312Y-48277180D01*
X148875312Y-48277180D02*
X148922931Y-48181942D01*
X148922931Y-48181942D02*
X148922931Y-47372419D01*
X149256265Y-47372419D02*
X149827693Y-47372419D01*
X149541979Y-48372419D02*
X149541979Y-47372419D01*
X129327693Y-47420038D02*
X129232455Y-47372419D01*
X129232455Y-47372419D02*
X129089598Y-47372419D01*
X129089598Y-47372419D02*
X128946741Y-47420038D01*
X128946741Y-47420038D02*
X128851503Y-47515276D01*
X128851503Y-47515276D02*
X128803884Y-47610514D01*
X128803884Y-47610514D02*
X128756265Y-47800990D01*
X128756265Y-47800990D02*
X128756265Y-47943847D01*
X128756265Y-47943847D02*
X128803884Y-48134323D01*
X128803884Y-48134323D02*
X128851503Y-48229561D01*
X128851503Y-48229561D02*
X128946741Y-48324800D01*
X128946741Y-48324800D02*
X129089598Y-48372419D01*
X129089598Y-48372419D02*
X129184836Y-48372419D01*
X129184836Y-48372419D02*
X129327693Y-48324800D01*
X129327693Y-48324800D02*
X129375312Y-48277180D01*
X129375312Y-48277180D02*
X129375312Y-47943847D01*
X129375312Y-47943847D02*
X129184836Y-47943847D01*
D12*
X159190476Y-59954819D02*
X159190476Y-58954819D01*
X159190476Y-58954819D02*
X159523809Y-59669104D01*
X159523809Y-59669104D02*
X159857142Y-58954819D01*
X159857142Y-58954819D02*
X159857142Y-59954819D01*
X160238095Y-58954819D02*
X160857142Y-58954819D01*
X160857142Y-58954819D02*
X160523809Y-59335771D01*
X160523809Y-59335771D02*
X160666666Y-59335771D01*
X160666666Y-59335771D02*
X160761904Y-59383390D01*
X160761904Y-59383390D02*
X160809523Y-59431009D01*
X160809523Y-59431009D02*
X160857142Y-59526247D01*
X160857142Y-59526247D02*
X160857142Y-59764342D01*
X160857142Y-59764342D02*
X160809523Y-59859580D01*
X160809523Y-59859580D02*
X160761904Y-59907200D01*
X160761904Y-59907200D02*
X160666666Y-59954819D01*
X160666666Y-59954819D02*
X160380952Y-59954819D01*
X160380952Y-59954819D02*
X160285714Y-59907200D01*
X160285714Y-59907200D02*
X160238095Y-59859580D01*
D13*
X156513842Y-49467619D02*
X156574318Y-49286190D01*
X156574318Y-49286190D02*
X156574318Y-48983809D01*
X156574318Y-48983809D02*
X156513842Y-48862857D01*
X156513842Y-48862857D02*
X156453365Y-48802381D01*
X156453365Y-48802381D02*
X156332413Y-48741904D01*
X156332413Y-48741904D02*
X156211461Y-48741904D01*
X156211461Y-48741904D02*
X156090508Y-48802381D01*
X156090508Y-48802381D02*
X156030032Y-48862857D01*
X156030032Y-48862857D02*
X155969556Y-48983809D01*
X155969556Y-48983809D02*
X155909080Y-49225714D01*
X155909080Y-49225714D02*
X155848603Y-49346666D01*
X155848603Y-49346666D02*
X155788127Y-49407143D01*
X155788127Y-49407143D02*
X155667175Y-49467619D01*
X155667175Y-49467619D02*
X155546222Y-49467619D01*
X155546222Y-49467619D02*
X155425270Y-49407143D01*
X155425270Y-49407143D02*
X155364794Y-49346666D01*
X155364794Y-49346666D02*
X155304318Y-49225714D01*
X155304318Y-49225714D02*
X155304318Y-48923333D01*
X155304318Y-48923333D02*
X155364794Y-48741904D01*
X156574318Y-47532380D02*
X156574318Y-48258095D01*
X156574318Y-47895238D02*
X155304318Y-47895238D01*
X155304318Y-47895238D02*
X155485746Y-48016190D01*
X155485746Y-48016190D02*
X155606699Y-48137142D01*
X155606699Y-48137142D02*
X155667175Y-48258095D01*
D12*
X139880952Y-47954819D02*
X139547619Y-47478628D01*
X139309524Y-47954819D02*
X139309524Y-46954819D01*
X139309524Y-46954819D02*
X139690476Y-46954819D01*
X139690476Y-46954819D02*
X139785714Y-47002438D01*
X139785714Y-47002438D02*
X139833333Y-47050057D01*
X139833333Y-47050057D02*
X139880952Y-47145295D01*
X139880952Y-47145295D02*
X139880952Y-47288152D01*
X139880952Y-47288152D02*
X139833333Y-47383390D01*
X139833333Y-47383390D02*
X139785714Y-47431009D01*
X139785714Y-47431009D02*
X139690476Y-47478628D01*
X139690476Y-47478628D02*
X139309524Y-47478628D01*
X140833333Y-47954819D02*
X140261905Y-47954819D01*
X140547619Y-47954819D02*
X140547619Y-46954819D01*
X140547619Y-46954819D02*
X140452381Y-47097676D01*
X140452381Y-47097676D02*
X140357143Y-47192914D01*
X140357143Y-47192914D02*
X140261905Y-47240533D01*
X141214286Y-47050057D02*
X141261905Y-47002438D01*
X141261905Y-47002438D02*
X141357143Y-46954819D01*
X141357143Y-46954819D02*
X141595238Y-46954819D01*
X141595238Y-46954819D02*
X141690476Y-47002438D01*
X141690476Y-47002438D02*
X141738095Y-47050057D01*
X141738095Y-47050057D02*
X141785714Y-47145295D01*
X141785714Y-47145295D02*
X141785714Y-47240533D01*
X141785714Y-47240533D02*
X141738095Y-47383390D01*
X141738095Y-47383390D02*
X141166667Y-47954819D01*
X141166667Y-47954819D02*
X141785714Y-47954819D01*
X142404762Y-46954819D02*
X142500000Y-46954819D01*
X142500000Y-46954819D02*
X142595238Y-47002438D01*
X142595238Y-47002438D02*
X142642857Y-47050057D01*
X142642857Y-47050057D02*
X142690476Y-47145295D01*
X142690476Y-47145295D02*
X142738095Y-47335771D01*
X142738095Y-47335771D02*
X142738095Y-47573866D01*
X142738095Y-47573866D02*
X142690476Y-47764342D01*
X142690476Y-47764342D02*
X142642857Y-47859580D01*
X142642857Y-47859580D02*
X142595238Y-47907200D01*
X142595238Y-47907200D02*
X142500000Y-47954819D01*
X142500000Y-47954819D02*
X142404762Y-47954819D01*
X142404762Y-47954819D02*
X142309524Y-47907200D01*
X142309524Y-47907200D02*
X142261905Y-47859580D01*
X142261905Y-47859580D02*
X142214286Y-47764342D01*
X142214286Y-47764342D02*
X142166667Y-47573866D01*
X142166667Y-47573866D02*
X142166667Y-47335771D01*
X142166667Y-47335771D02*
X142214286Y-47145295D01*
X142214286Y-47145295D02*
X142261905Y-47050057D01*
X142261905Y-47050057D02*
X142309524Y-47002438D01*
X142309524Y-47002438D02*
X142404762Y-46954819D01*
X140190476Y-41454819D02*
X140190476Y-40454819D01*
X140190476Y-40454819D02*
X140523809Y-41169104D01*
X140523809Y-41169104D02*
X140857142Y-40454819D01*
X140857142Y-40454819D02*
X140857142Y-41454819D01*
X141238095Y-40454819D02*
X141857142Y-40454819D01*
X141857142Y-40454819D02*
X141523809Y-40835771D01*
X141523809Y-40835771D02*
X141666666Y-40835771D01*
X141666666Y-40835771D02*
X141761904Y-40883390D01*
X141761904Y-40883390D02*
X141809523Y-40931009D01*
X141809523Y-40931009D02*
X141857142Y-41026247D01*
X141857142Y-41026247D02*
X141857142Y-41264342D01*
X141857142Y-41264342D02*
X141809523Y-41359580D01*
X141809523Y-41359580D02*
X141761904Y-41407200D01*
X141761904Y-41407200D02*
X141666666Y-41454819D01*
X141666666Y-41454819D02*
X141380952Y-41454819D01*
X141380952Y-41454819D02*
X141285714Y-41407200D01*
X141285714Y-41407200D02*
X141238095Y-41359580D01*
D13*
X144241667Y-43499318D02*
X144241667Y-44406461D01*
X144241667Y-44406461D02*
X144181190Y-44587889D01*
X144181190Y-44587889D02*
X144060238Y-44708842D01*
X144060238Y-44708842D02*
X143878809Y-44769318D01*
X143878809Y-44769318D02*
X143757857Y-44769318D01*
X145390714Y-43922651D02*
X145390714Y-44769318D01*
X145088333Y-43438842D02*
X144785952Y-44345984D01*
X144785952Y-44345984D02*
X145572143Y-44345984D01*
X128741667Y-43499318D02*
X128741667Y-44406461D01*
X128741667Y-44406461D02*
X128681190Y-44587889D01*
X128681190Y-44587889D02*
X128560238Y-44708842D01*
X128560238Y-44708842D02*
X128378809Y-44769318D01*
X128378809Y-44769318D02*
X128257857Y-44769318D01*
X129225476Y-43499318D02*
X130011667Y-43499318D01*
X130011667Y-43499318D02*
X129588333Y-43983127D01*
X129588333Y-43983127D02*
X129769762Y-43983127D01*
X129769762Y-43983127D02*
X129890714Y-44043603D01*
X129890714Y-44043603D02*
X129951190Y-44104080D01*
X129951190Y-44104080D02*
X130011667Y-44225032D01*
X130011667Y-44225032D02*
X130011667Y-44527413D01*
X130011667Y-44527413D02*
X129951190Y-44648365D01*
X129951190Y-44648365D02*
X129890714Y-44708842D01*
X129890714Y-44708842D02*
X129769762Y-44769318D01*
X129769762Y-44769318D02*
X129406905Y-44769318D01*
X129406905Y-44769318D02*
X129285952Y-44708842D01*
X129285952Y-44708842D02*
X129225476Y-44648365D01*
X138641667Y-56649318D02*
X138641667Y-57556461D01*
X138641667Y-57556461D02*
X138581190Y-57737889D01*
X138581190Y-57737889D02*
X138460238Y-57858842D01*
X138460238Y-57858842D02*
X138278809Y-57919318D01*
X138278809Y-57919318D02*
X138157857Y-57919318D01*
X139851190Y-56649318D02*
X139246428Y-56649318D01*
X139246428Y-56649318D02*
X139185952Y-57254080D01*
X139185952Y-57254080D02*
X139246428Y-57193603D01*
X139246428Y-57193603D02*
X139367381Y-57133127D01*
X139367381Y-57133127D02*
X139669762Y-57133127D01*
X139669762Y-57133127D02*
X139790714Y-57193603D01*
X139790714Y-57193603D02*
X139851190Y-57254080D01*
X139851190Y-57254080D02*
X139911667Y-57375032D01*
X139911667Y-57375032D02*
X139911667Y-57677413D01*
X139911667Y-57677413D02*
X139851190Y-57798365D01*
X139851190Y-57798365D02*
X139790714Y-57858842D01*
X139790714Y-57858842D02*
X139669762Y-57919318D01*
X139669762Y-57919318D02*
X139367381Y-57919318D01*
X139367381Y-57919318D02*
X139246428Y-57858842D01*
X139246428Y-57858842D02*
X139185952Y-57798365D01*
X163536667Y-43564318D02*
X163536667Y-44471461D01*
X163536667Y-44471461D02*
X163476190Y-44652889D01*
X163476190Y-44652889D02*
X163355238Y-44773842D01*
X163355238Y-44773842D02*
X163173809Y-44834318D01*
X163173809Y-44834318D02*
X163052857Y-44834318D01*
X164806667Y-44834318D02*
X164080952Y-44834318D01*
X164443809Y-44834318D02*
X164443809Y-43564318D01*
X164443809Y-43564318D02*
X164322857Y-43745746D01*
X164322857Y-43745746D02*
X164201905Y-43866699D01*
X164201905Y-43866699D02*
X164080952Y-43927175D01*
X166191667Y-56654318D02*
X166191667Y-57561461D01*
X166191667Y-57561461D02*
X166131190Y-57742889D01*
X166131190Y-57742889D02*
X166010238Y-57863842D01*
X166010238Y-57863842D02*
X165828809Y-57924318D01*
X165828809Y-57924318D02*
X165707857Y-57924318D01*
X166735952Y-56775270D02*
X166796428Y-56714794D01*
X166796428Y-56714794D02*
X166917381Y-56654318D01*
X166917381Y-56654318D02*
X167219762Y-56654318D01*
X167219762Y-56654318D02*
X167340714Y-56714794D01*
X167340714Y-56714794D02*
X167401190Y-56775270D01*
X167401190Y-56775270D02*
X167461667Y-56896222D01*
X167461667Y-56896222D02*
X167461667Y-57017175D01*
X167461667Y-57017175D02*
X167401190Y-57198603D01*
X167401190Y-57198603D02*
X166675476Y-57924318D01*
X166675476Y-57924318D02*
X167461667Y-57924318D01*
D11*
%TO.C,S1*%
X153200000Y-44500000D02*
X153200000Y-44500000D01*
X153200000Y-44500000D02*
X153200000Y-44500000D01*
X153300000Y-44500000D02*
X153300000Y-44500000D01*
D14*
X153800000Y-42150000D02*
X153800000Y-54850000D01*
X153800000Y-54850000D02*
X154600000Y-54850000D01*
X154600000Y-42150000D02*
X153800000Y-42150000D01*
X157400000Y-54850000D02*
X158200000Y-54850000D01*
X158200000Y-42150000D02*
X157400000Y-42150000D01*
X158200000Y-54850000D02*
X158200000Y-42150000D01*
D11*
X153200000Y-44500000D02*
G75*
G02*
X153300000Y-44500000I50000J0D01*
G01*
X153300000Y-44500000D02*
G75*
G02*
X153200000Y-44500000I-50000J0D01*
G01*
X153300000Y-44500000D02*
G75*
G02*
X153200000Y-44500000I-50000J0D01*
G01*
D15*
%TO.C,R120*%
X138227064Y-47765000D02*
X137772936Y-47765000D01*
X138227064Y-49235000D02*
X137772936Y-49235000D01*
D14*
%TO.C,J4*%
X142250000Y-40135000D02*
X142250000Y-44195000D01*
X144665000Y-46865000D02*
X149750000Y-46865000D01*
X149750000Y-40135000D02*
X142250000Y-40135000D01*
X149750000Y-46865000D02*
X149750000Y-40135000D01*
%TO.C,J3*%
X126750000Y-40135000D02*
X126750000Y-44195000D01*
X129165000Y-46865000D02*
X134250000Y-46865000D01*
X134250000Y-40135000D02*
X126750000Y-40135000D01*
X134250000Y-46865000D02*
X134250000Y-40135000D01*
%TO.C,J5*%
X127440000Y-50700000D02*
X149940000Y-50700000D01*
X127440000Y-63450000D02*
X127440000Y-50700000D01*
D11*
X147400000Y-63950000D02*
X147400000Y-63950000D01*
X147500000Y-63950000D02*
X147500000Y-63950000D01*
D14*
X149940000Y-50700000D02*
X149940000Y-63450000D01*
X149940000Y-52800000D02*
X150690000Y-52800000D01*
X149940000Y-63450000D02*
X127440000Y-63450000D01*
X150690000Y-52800000D02*
X150690000Y-60850000D01*
X150690000Y-60850000D02*
X149940000Y-60850000D01*
D11*
X147400000Y-63950000D02*
G75*
G02*
X147500000Y-63950000I50000J0D01*
G01*
X147500000Y-63950000D02*
G75*
G02*
X147400000Y-63950000I-50000J0D01*
G01*
D14*
%TO.C,J1*%
X161415000Y-40200000D02*
X161415000Y-44260000D01*
X163960000Y-46800000D02*
X171585000Y-46800000D01*
X171585000Y-40200000D02*
X161415000Y-40200000D01*
X171585000Y-46800000D02*
X171585000Y-40200000D01*
%TO.C,J2*%
X162040000Y-50700000D02*
X170490000Y-50700000D01*
X162040000Y-63450000D02*
X162040000Y-50700000D01*
D11*
X167940000Y-63950000D02*
X167940000Y-63950000D01*
X168040000Y-63950000D02*
X168040000Y-63950000D01*
D14*
X170490000Y-50700000D02*
X170490000Y-63450000D01*
X170490000Y-60850000D02*
X171240000Y-60850000D01*
X170490000Y-63450000D02*
X162040000Y-63450000D01*
X171240000Y-52800000D02*
X170490000Y-52800000D01*
X171240000Y-60850000D02*
X171240000Y-52800000D01*
D11*
X167940000Y-63950000D02*
G75*
G02*
X168040000Y-63950000I50000J0D01*
G01*
X168040000Y-63950000D02*
G75*
G02*
X167940000Y-63950000I-50000J0D01*
G01*
%TD*%
D16*
%TO.C,S1*%
X156000000Y-44500000D03*
D17*
X156000000Y-48500000D03*
X156000000Y-52500000D03*
D18*
X156000000Y-42350000D03*
X156000000Y-54650000D03*
%TD*%
D19*
%TO.C,J4*%
X144665000Y-44195000D03*
D20*
X147205000Y-44195000D03*
%TD*%
D19*
%TO.C,J3*%
X129165000Y-44195000D03*
D20*
X131705000Y-44195000D03*
%TD*%
D21*
%TO.C,J5*%
X147500000Y-58000000D03*
D22*
X147500000Y-53000000D03*
X144000000Y-58000000D03*
X144000000Y-53000000D03*
X140500000Y-58000000D03*
X140500000Y-53000000D03*
X137000000Y-58000000D03*
X137000000Y-53000000D03*
X133500000Y-58000000D03*
X133500000Y-53000000D03*
X130000000Y-58000000D03*
X130000000Y-53000000D03*
%TD*%
D23*
%TO.C,J1*%
X163960000Y-44260000D03*
D24*
X166500000Y-44260000D03*
X169040000Y-44260000D03*
%TD*%
D21*
%TO.C,J2*%
X168040000Y-58000000D03*
D22*
X168040000Y-53000000D03*
X164540000Y-58000000D03*
X164540000Y-53000000D03*
%TD*%
M02*
