M48
; DRILL file {KiCad 8.0.7} date 2024-12-13T10:46:21-0500
; FORMAT={-:-/ absolute / inch / decimal}
; #@! TF.CreationDate,2024-12-13T10:46:21-05:00
; #@! TF.GenerationSoftware,Kicad,Pcbnew,8.0.7
; #@! TF.FileFunction,Plated,1,2,PTH
FMAT,2
INCH
; #@! TA.AperFunction,Plated,PTH,ComponentDrill
T1C0.0307
; #@! TA.AperFunction,Plated,PTH,ComponentDrill
T2C0.0433
; #@! TA.AperFunction,Plated,PTH,ComponentDrill
T3C0.0453
; #@! TA.AperFunction,Plated,PTH,ComponentDrill
T4C0.0472
; #@! TA.AperFunction,Plated,PTH,ComponentDrill
T5C0.0575
; #@! TA.AperFunction,Plated,PTH,ComponentDrill
T6C0.1260
%
G90
G05
T1
X6.1417Y-1.752
X6.1417Y-1.9094
X6.1417Y-2.0669
T2
X5.0852Y-1.74
X5.1852Y-1.74
X5.6955Y-1.74
X5.7955Y-1.74
T3
X6.4551Y-1.7425
X6.5551Y-1.7425
X6.6551Y-1.7425
T4
X5.1181Y-2.0866
X5.1181Y-2.2835
X5.2559Y-2.0866
X5.2559Y-2.2835
X5.3937Y-2.0866
X5.3937Y-2.2835
X5.5315Y-2.0866
X5.5315Y-2.2835
X5.6693Y-2.0866
X5.6693Y-2.2835
X5.8071Y-2.0866
X5.8071Y-2.2835
X6.478Y-2.0866
X6.478Y-2.2835
X6.6157Y-2.0866
X6.6157Y-2.2835
T5
X6.1417Y-1.6673
X6.1417Y-2.1516
T6
X5.4331Y-1.7126
X6.1417Y-2.3425
M30
